<svg width="24" height="24" viewBox="0 0 24 24" fill="none" xmlns="http://www.w3.org/2000/svg">
<circle cx="12" cy="12" r="12" fill="#FAF2DD"/>
<circle cx="12.3443" cy="12.3438" r="10.9551" stroke="#1C2B49" stroke-opacity="0.7"/>
<path d="M5.3335 10.2227C5.3335 10.2227 6.58545 8.88932 7.55572 8.88932C8.52598 8.88932 9.77794 10.2227 9.77794 10.2227" stroke="#1C2B49" stroke-opacity="0.7" stroke-linecap="round" stroke-linejoin="round"/>
<path d="M15.1113 10.2227C15.1113 10.2227 16.3633 8.88932 17.3336 8.88932C18.3038 8.88932 19.5558 10.2227 19.5558 10.2227" stroke="#1C2B49" stroke-opacity="0.7" stroke-linecap="round" stroke-linejoin="round"/>
<path d="M9.98312 19.8885C9.54905 19.6576 9.14077 19.3481 8.71133 18.9471C8.28687 18.5509 7.95427 17.9559 7.7049 17.3699C7.29654 16.4103 7.11133 15.4747 7.11133 15.4747C7.11133 15.4747 10.3521 14.2222 12.4447 14.2222C14.5372 14.2222 17.778 15.4747 17.778 15.4747C17.778 15.4747 17.609 16.3327 17.2365 17.2478C16.9822 17.8725 16.633 18.5239 16.178 18.9471C15.7546 19.341 15.3387 19.6533 14.9029 19.8885M9.98312 19.8885C10.6127 20.2234 11.2966 20.3928 12.178 20.4353C13.2602 20.4876 14.1142 20.3142 14.9029 19.8885M9.98312 19.8885C9.98312 19.8885 11.1821 18.6464 12.178 18.5553C13.3554 18.4475 14.9029 19.8885 14.9029 19.8885" stroke="#1C2B49" stroke-opacity="0.7" stroke-linecap="round" stroke-linejoin="round"/>
</svg>
