<svg width="24" height="24" viewBox="0 0 24 24" fill="none" xmlns="http://www.w3.org/2000/svg">
<circle cx="12" cy="12" r="12" fill="#CCDCEC" fill-opacity="0.4"/>
<circle cx="12.3438" cy="12.3443" r="10.9551" stroke="#1C2B49" stroke-opacity="0.7"/>
<path d="M8.37549 17.8911C8.37549 17.8911 10.629 17.0022 12.3755 17.0022C14.122 17.0022 16.3755 17.8911 16.3755 17.8911" stroke="#1C2B49" stroke-opacity="0.7" stroke-linecap="round" stroke-linejoin="round"/>
<circle cx="7.11106" cy="12.4446" r="0.888889" fill="#4F5D75"/>
<circle cx="7.11106" cy="12.4446" r="0.888889" fill="#4F5D75"/>
<circle cx="7.11106" cy="12.4446" r="0.888889" fill="#4F5D75"/>
<circle cx="17.778" cy="12.4446" r="0.888889" fill="#4F5D75"/>
<circle cx="17.778" cy="12.4446" r="0.888889" fill="#4F5D75"/>
<circle cx="17.778" cy="12.4446" r="0.888889" fill="#4F5D75"/>
<path d="M7.99989 8C7.99989 8 6.98062 8.97936 6.22211 9.33333C5.55882 9.64287 4.44434 9.77778 4.44434 9.77778" stroke="#1C2B49" stroke-opacity="0.7" stroke-linecap="round" stroke-linejoin="round"/>
<path d="M16.8888 8C16.8888 8 17.908 8.97936 18.6666 9.33333C19.3299 9.64287 20.4443 9.77778 20.4443 9.77778" stroke="#1C2B49" stroke-opacity="0.7" stroke-linecap="round" stroke-linejoin="round"/>
</svg>
