<svg width="25" height="14" viewBox="0 0 25 14" fill="none" xmlns="http://www.w3.org/2000/svg">
<ellipse cx="12.8947" cy="6.64729" rx="0.793103" ry="0.705882" fill="#2D3142" fill-opacity="0.7"/>
<ellipse cx="11.7051" cy="5.58829" rx="0.396552" ry="0.352941" fill="#2D3142" fill-opacity="0.7"/>
<ellipse cx="13.295" cy="4.88224" rx="0.396552" ry="0.352941" fill="#2D3142" fill-opacity="0.7"/>
<path d="M1 3V1C1 1 8.00897 2.2 12.5 2.2C16.991 2.2 24 1 24 1V3M1 3C1 3 5.89946 4.21738 8.07692 6.2C10.3639 8.28234 11.6154 13 11.6154 13M1 3C1 3 4.70333 5.08935 6.75 7C8.88983 8.99762 11.6154 13 11.6154 13M11.6154 13H13.8269M13.8269 13C15.3788 6.46045 17.5569 4.21025 24 3M13.8269 13C13.8269 13 16.1062 9.04248 18.25 7C20.2004 5.1418 24 3 24 3" stroke="#4F5D75" stroke-width="0.8" stroke-linecap="round" stroke-linejoin="round"/>
</svg>
