<svg width="16" height="24" viewBox="0 0 16 24" fill="none" xmlns="http://www.w3.org/2000/svg">
<path d="M9.33077 17.6945C9.33077 20.4384 7.2995 22.6022 4.86538 22.6022C2.43127 22.6022 0.4 20.4384 0.4 17.6945C0.4 17.0451 0.676567 16.0776 1.13126 14.9486C1.57998 13.8344 2.18094 12.6129 2.78586 11.4753C3.39014 10.339 3.99491 9.29269 4.44887 8.53015C4.60874 8.26161 4.74979 8.02845 4.86538 7.83917C4.98098 8.02845 5.12203 8.26161 5.2819 8.53015C5.73586 9.29269 6.34063 10.339 6.9449 11.4753C7.54983 12.6129 8.15079 13.8344 8.59951 14.9486C9.0542 16.0776 9.33077 17.0451 9.33077 17.6945Z" stroke="#2D3142" stroke-opacity="0.7" stroke-width="0.8" stroke-linecap="round" stroke-linejoin="round"/>
<path d="M14.6388 7.07692C14.6388 8.81025 13.2337 10.2154 11.5004 10.2154C9.76705 10.2154 8.36191 8.81025 8.36191 7.07692C8.36191 6.67921 8.55052 6.05985 8.88101 5.3076C9.20429 4.57178 9.63844 3.7626 10.0771 3.00633C10.5151 2.25138 10.9536 1.55593 11.283 1.04882C11.3624 0.926566 11.4353 0.815354 11.5004 0.717C11.5654 0.815354 11.6384 0.926566 11.7178 1.04882C12.0471 1.55593 12.4857 2.25138 12.9236 3.00633C13.3623 3.7626 13.7965 4.57178 14.1197 5.3076C14.4502 6.05985 14.6388 6.67921 14.6388 7.07692Z" stroke="#2D3142" stroke-opacity="0.7" stroke-width="0.8" stroke-linecap="round" stroke-linejoin="round"/>
<path d="M5.16531 21.2251C5.16531 21.2251 3.41046 21.1488 2.68002 20.2079C1.94259 19.2581 1.76885 16.8083 1.76885 16.8083" stroke="#2D3142" stroke-opacity="0.7" stroke-width="0.8" stroke-linecap="round" stroke-linejoin="round"/>
</svg>
