<svg width="18" height="20" viewBox="0 0 18 20" fill="none" xmlns="http://www.w3.org/2000/svg">
<g opacity="0.8">
<path d="M10.2858 11.055C10.2858 11.8242 9.71015 12.4478 9.00007 12.4478C8.28999 12.4478 7.71436 11.8242 7.71436 11.055C7.71436 10.2857 8.28999 9.66211 9.00007 9.66211C9.71015 9.66211 10.2858 10.2857 10.2858 11.055Z" fill="#1C2B49"/>
<path d="M9.00007 13.8407C9.35511 13.8407 9.64293 13.5289 9.64293 13.1443V11.4032H8.35721V13.1443C8.35721 13.5289 8.64503 13.8407 9.00007 13.8407Z" fill="#1C2B49"/>
<path d="M10.2858 11.055C10.2858 11.8242 9.71015 12.4478 9.00007 12.4478C8.28999 12.4478 7.71436 11.8242 7.71436 11.055C7.71436 10.2857 8.28999 9.66211 9.00007 9.66211C9.71015 9.66211 10.2858 10.2857 10.2858 11.055Z" stroke="#1C2B49"/>
<path d="M9.00007 13.8407C9.35511 13.8407 9.64293 13.5289 9.64293 13.1443V11.4032H8.35721V13.1443C8.35721 13.5289 8.64503 13.8407 9.00007 13.8407Z" stroke="#1C2B49"/>
<path d="M1.92803 8.32231L1.92856 16.5723C1.92858 16.9865 2.26436 17.3223 2.67856 17.3223H15.3214C15.7357 17.3223 16.0714 16.9865 16.0714 16.5722L16.0709 8.32222C16.0709 7.90802 15.7351 7.57227 15.3209 7.57227H2.67803C2.26379 7.57227 1.928 7.90808 1.92803 8.32231Z" stroke="#1C2B49"/>
<path d="M12.8574 7.16071L12.8574 5.17857C12.8574 2.87081 11.1305 1 9.00021 1C6.86997 1 5.14307 2.87081 5.14307 5.17857L5.14307 7.16071" stroke="#1C2B49"/>
</g>
</svg>
