<svg width="67" height="55" viewBox="0 0 67 55" fill="none" xmlns="http://www.w3.org/2000/svg">
<circle cx="34.4961" cy="27.5" r="27.5" fill="#FAE2C7" fill-opacity="0.55"/>
<path d="M6.18809 39.8946L61.049 39.419C62.1523 39.4094 63.0395 38.5081 63.0316 37.4046L62.8885 17.5795C62.8825 16.737 62.1976 16.0573 61.3551 16.0575L31.3737 16.0668L5.95591 16.0747C4.84313 16.075 3.94462 16.9836 3.95664 18.0963L3.96769 19.1183L4.17086 37.9163C4.18278 39.0192 5.08523 39.9042 6.18809 39.8946Z" fill="#FAE2C7" fill-opacity="0.1" stroke="#1C2B49" stroke-opacity="0.9" stroke-width="0.8" stroke-linecap="round" stroke-linejoin="round"/>
<path d="M58.356 27.5479L8.04447 27.5253" stroke="#1C2B49" stroke-opacity="0.9" stroke-width="0.8" stroke-linecap="round" stroke-linejoin="round"/>
<circle cx="42.7104" cy="22.0622" r="2.25" transform="rotate(90.057 42.7104 22.0622)" fill="#FAE2C7"/>
<circle cx="42.7104" cy="22.0622" r="1.85" transform="rotate(90.057 42.7104 22.0622)" stroke="#1C2B49" stroke-opacity="0.9" stroke-width="0.8"/>
<circle cx="36.6279" cy="21.9919" r="2.25" transform="rotate(90.057 36.6279 21.9919)" fill="#FAE2C7"/>
<circle cx="36.6279" cy="21.9919" r="1.85" transform="rotate(90.057 36.6279 21.9919)" stroke="#1C2B49" stroke-opacity="0.9" stroke-width="0.8"/>
<circle cx="54.7104" cy="22.0739" r="2.25" transform="rotate(90.057 54.7104 22.0739)" fill="#FAE2C7"/>
<circle cx="54.7104" cy="22.0739" r="1.85" transform="rotate(90.057 54.7104 22.0739)" stroke="#1C2B49" stroke-opacity="0.9" stroke-width="0.8"/>
<circle cx="48.6279" cy="22.0046" r="2.25" transform="rotate(90.057 48.6279 22.0046)" fill="#FAE2C7"/>
<circle cx="48.6279" cy="22.0046" r="1.85" transform="rotate(90.057 48.6279 22.0046)" stroke="#1C2B49" stroke-opacity="0.9" stroke-width="0.8"/>
<circle cx="30.5459" cy="21.9226" r="2.25" transform="rotate(90.057 30.5459 21.9226)" fill="#FAE2C7"/>
<circle cx="30.5459" cy="21.9226" r="1.85" transform="rotate(90.057 30.5459 21.9226)" stroke="#1C2B49" stroke-opacity="0.9" stroke-width="0.8"/>
<circle cx="24.4636" cy="21.8523" r="2.25" transform="rotate(90.057 24.4636 21.8523)" fill="#FAE2C7"/>
<circle cx="24.4636" cy="21.8523" r="1.85" transform="rotate(90.057 24.4636 21.8523)" stroke="#1C2B49" stroke-opacity="0.9" stroke-width="0.8"/>
<circle cx="18.3813" cy="21.7819" r="2.25" transform="rotate(90.057 18.3813 21.7819)" fill="#FAE2C7"/>
<circle cx="18.3813" cy="21.7819" r="1.85" transform="rotate(90.057 18.3813 21.7819)" stroke="#1C2B49" stroke-opacity="0.9" stroke-width="0.8"/>
<circle cx="12.2985" cy="21.7126" r="2.25" transform="rotate(90.057 12.2985 21.7126)" fill="#FAE2C7"/>
<circle cx="12.2985" cy="21.7126" r="1.85" transform="rotate(90.057 12.2985 21.7126)" stroke="#1C2B49" stroke-opacity="0.9" stroke-width="0.8"/>
<circle cx="42.7084" cy="33.3234" r="2.25" transform="rotate(90.5645 42.7084 33.3234)" fill="#FAE2C7"/>
<circle cx="42.7084" cy="33.3234" r="1.85" transform="rotate(90.5645 42.7084 33.3234)" stroke="#1C2B49" stroke-opacity="0.9" stroke-width="0.8"/>
<circle cx="36.6225" cy="33.1994" r="2.25" transform="rotate(90.5645 36.6225 33.1994)" fill="#FAE2C7"/>
<circle cx="36.6225" cy="33.1994" r="1.85" transform="rotate(90.5645 36.6225 33.1994)" stroke="#1C2B49" stroke-opacity="0.9" stroke-width="0.8"/>
<circle cx="54.7084" cy="33.4426" r="2.25" transform="rotate(90.5645 54.7084 33.4426)" fill="#FAE2C7"/>
<circle cx="54.7084" cy="33.4426" r="1.85" transform="rotate(90.5645 54.7084 33.4426)" stroke="#1C2B49" stroke-opacity="0.9" stroke-width="0.8"/>
<circle cx="48.6225" cy="33.3185" r="2.25" transform="rotate(90.5645 48.6225 33.3185)" fill="#FAE2C7"/>
<circle cx="48.6225" cy="33.3185" r="1.85" transform="rotate(90.5645 48.6225 33.3185)" stroke="#1C2B49" stroke-opacity="0.9" stroke-width="0.8"/>
<circle cx="30.5443" cy="33.0754" r="2.25" transform="rotate(90.5645 30.5443 33.0754)" fill="#FAE2C7"/>
<circle cx="30.5443" cy="33.0754" r="1.85" transform="rotate(90.5645 30.5443 33.0754)" stroke="#1C2B49" stroke-opacity="0.9" stroke-width="0.8"/>
<circle cx="24.4623" cy="32.9523" r="2.25" transform="rotate(90.5645 24.4623 32.9523)" fill="#FAE2C7"/>
<circle cx="24.4623" cy="32.9523" r="1.85" transform="rotate(90.5645 24.4623 32.9523)" stroke="#1C2B49" stroke-opacity="0.9" stroke-width="0.8"/>
<circle cx="18.3803" cy="32.8273" r="2.25" transform="rotate(90.5645 18.3803 32.8273)" fill="#FAE2C7"/>
<circle cx="18.3803" cy="32.8273" r="1.85" transform="rotate(90.5645 18.3803 32.8273)" stroke="#1C2B49" stroke-opacity="0.9" stroke-width="0.8"/>
<circle cx="12.2983" cy="32.7043" r="2.25" transform="rotate(90.5645 12.2983 32.7043)" fill="#FAE2C7"/>
<circle cx="12.2983" cy="32.7043" r="1.85" transform="rotate(90.5645 12.2983 32.7043)" stroke="#1C2B49" stroke-opacity="0.9" stroke-width="0.8"/>
<path d="M19.0052 10.4941C18.8638 10.6638 18.8867 10.916 19.0564 11.0575C19.2261 11.1989 19.4784 11.176 19.6198 11.0063L19.0052 10.4941ZM48.7763 11.1485C48.9963 11.1685 49.1909 11.0064 49.2109 10.7864L49.5368 7.20118C49.5568 6.98118 49.3947 6.78661 49.1747 6.76661C48.9547 6.74661 48.7601 6.90874 48.7401 7.12875L48.4504 10.3156L45.2635 10.0259C45.0435 10.0059 44.8489 10.168 44.8289 10.388C44.8089 10.608 44.9711 10.8026 45.1911 10.8226L48.7763 11.1485ZM19.6198 11.0063C26.9599 2.1981 41.1651 2.19798 48.5052 11.0062L49.1198 10.4941C41.4599 1.30202 26.6651 1.30216 19.0052 10.4941L19.6198 11.0063Z" fill="#1C2B49" fill-opacity="0.9"/>
<path d="M49.6547 45.6658C49.797 45.4969 49.7754 45.2445 49.6065 45.1022C49.4375 44.9599 49.1852 44.9815 49.0429 45.1504L49.6547 45.6658ZM19.8876 44.8514C19.6677 44.8302 19.4722 44.9913 19.451 45.2112L19.1058 48.7946C19.0846 49.0145 19.2457 49.21 19.4656 49.2312C19.6855 49.2523 19.8809 49.0912 19.9021 48.8714L20.209 45.6861L23.3943 45.993C23.6141 46.0142 23.8096 45.8531 23.8308 45.6332C23.852 45.4133 23.6909 45.2178 23.471 45.1967L19.8876 44.8514ZM49.0429 45.1504C41.6556 53.919 27.4505 53.8428 20.1579 44.9952L19.5405 45.504C27.151 54.7371 41.9455 54.8165 49.6547 45.6658L49.0429 45.1504Z" fill="#1C2B49" fill-opacity="0.9"/>
</svg>
