<svg width="48" height="69" viewBox="0 0 48 69" fill="none" xmlns="http://www.w3.org/2000/svg">
<path d="M15.9141 54.7078V64.9464L19.5078 66.4732L23.1016 68M15.9141 54.7078L19.5078 52.9115M15.9141 54.7078L19.5078 56.4142M23.1016 58.1206V68M23.1016 58.1206L26.875 56.4142M23.1016 58.1206L19.5078 56.4142M30.6484 54.7078V64.9464L26.875 66.4732L23.1016 68M30.6484 54.7078L26.875 52.9115M30.6484 54.7078L26.875 56.4142M19.5078 52.9115L23.1016 51.1153L26.875 52.9115M19.5078 52.9115L23.1914 54.6629M23.1914 54.6629L26.875 52.9115M23.1914 54.6629L26.875 56.4142M23.1914 54.6629L19.5078 56.4142M23.1914 54.6629V47.7024M23.1914 47.7024L47 22.1957M23.1914 47.7024L35.5 24.7105M23.1914 47.7024L13.0391 24.7105M23.1914 47.7024C23.1914 47.7024 9.73646 32.3671 1 22.1957M47 22.1957C42.2504 20.385 39.855 20.5763 35.5 24.7105M47 22.1957C45.7422 6.56836 32.8047 2.437 23.1914 1M35.5 24.7105C27.1421 18.8219 21.8438 18.6032 13.0391 24.7105M35.5 24.7105C35.8016 13.0158 32.9047 7.87032 23.1914 1M13.0391 24.7105C12.4623 21.965 2.97656 19.1421 1 22.1957M13.0391 24.7105C12.2667 15.2343 14.0521 9.99852 23.1914 1M1 22.1957C1 4.23324 23.1914 1 23.1914 1" stroke="#1C2B49" stroke-opacity="0.9" stroke-width="0.8" stroke-linecap="round" stroke-linejoin="round"/>
</svg>
