<svg width="1145" height="685" viewBox="0 0 1145 685" fill="none" xmlns="http://www.w3.org/2000/svg">
<path opacity="0.4" fill-rule="evenodd" clip-rule="evenodd" d="M1348.23 78.5835C1351.95 63.4804 1351.37 50.5831 1346.4 40.1223C1336.45 19.1747 1308.77 6.94876 1265.89 3.5995C1223.24 0.268326 1166.55 5.81114 1100.22 19.299C967.602 46.2667 796.979 104.879 624.14 186.944C451.222 269.045 286.203 358.944 169.738 439.409C111.486 479.656 65.5124 517.453 36.764 550.652C22.3869 567.255 12.4253 582.587 7.34069 596.391C2.26938 610.159 2.10331 622.234 7.02438 632.598C11.9827 643.041 22.1486 652.075 37.2342 659.482C52.303 666.882 72.066 672.55 95.8429 676.374C143.39 684.022 206.577 684.231 279.366 676.519C424.921 661.098 608.43 614.049 781.144 532.044C953.933 450.004 1105.92 348.597 1209.38 256.633C1261.12 210.64 1300.63 167.093 1324.55 129.59C1336.51 110.837 1344.51 93.6925 1348.23 78.5835ZM782.216 534.303C1128.17 370.045 1390.98 128.175 1348.66 39.05C1306.34 -50.0752 969.017 20.4277 623.068 184.685C277.118 348.943 -37.5508 544.545 4.76602 633.67C47.0828 722.796 436.267 698.56 782.216 534.303Z" fill="#F5DBD2"/>
</svg>
