<svg width="1187" height="497" viewBox="0 0 1187 497" fill="none" xmlns="http://www.w3.org/2000/svg">
<path opacity="0.4" fill-rule="evenodd" clip-rule="evenodd" d="M1431.4 101.142C1438.13 87.1454 1440.23 74.398 1437.58 63.1161C1432.3 40.6086 1408.44 24.3704 1368.06 14.4316C1327.89 4.5457 1272.39 1.16536 1205.77 3.52609C1072.57 8.2459 895.54 35.8851 709.214 79.6308C522.949 123.362 340.741 187.097 207.969 251.858C141.566 284.248 87.6493 316.835 51.7806 347.232C33.842 362.434 20.5255 376.998 12.3965 390.617C4.27073 404.231 1.45061 416.683 4.07064 427.842C6.69314 439.012 14.683 448.9 27.8617 457.457C41.0483 466.02 59.2344 473.115 81.7996 478.721C126.92 489.931 189.004 495.057 262.183 494.448C408.502 493.23 598.638 469.094 784.907 425.361C971.116 381.643 1140.16 314.423 1259.77 246.192C1319.6 212.069 1366.95 177.754 1397.9 146.079C1413.37 130.242 1424.67 115.145 1431.4 101.142ZM785.478 427.795C1158.3 340.263 1462.57 158.594 1440.01 62.5447C1417.46 -33.5047 1081.47 -10.3354 708.643 77.197C335.816 164.729 -20.9137 332.364 1.63682 428.414C24.1874 524.463 412.652 515.327 785.478 427.795Z" fill="#F5DBD2"/>
</svg>
